<!-- Generated by IcoMoon.io -->
<svg version="1.1" xmlns="http://www.w3.org/2000/svg" width="45" height="40" viewBox="0 0 45 40">
<title>books</title>
<path d="M8.75 5h-7.5c-0.688 0-1.25 0.563-1.25 1.25v27.5c0 0.688 0.563 1.25 1.25 1.25h7.5c0.688 0 1.25-0.563 1.25-1.25v-27.5c0-0.688-0.563-1.25-1.25-1.25zM7.5 12.5h-5v-2.5h5v2.5z"></path>
<path d="M21.25 5h-7.5c-0.688 0-1.25 0.563-1.25 1.25v27.5c0 0.688 0.563 1.25 1.25 1.25h7.5c0.688 0 1.25-0.563 1.25-1.25v-27.5c0-0.688-0.563-1.25-1.25-1.25zM20 12.5h-5v-2.5h5v2.5z"></path>
<path d="M29.886 6.933l-6.698 3.375c-0.614 0.309-0.863 1.065-0.554 1.679l11.249 22.326c0.309 0.614 1.065 0.863 1.679 0.554l6.698-3.375c0.614-0.309 0.863-1.065 0.554-1.679l-11.249-22.326c-0.309-0.614-1.065-0.863-1.679-0.554z"></path>
</svg>
