<!-- Generated by IcoMoon.io -->
<svg version="1.1" xmlns="http://www.w3.org/2000/svg" width="40" height="40" viewBox="0 0 40 40">
<title>bullhorn</title>
<path d="M40 16.768c0-7.849-2.297-14.216-5.136-14.267 0.011-0 0.023-0.001 0.034-0.001h-3.24c0 0-7.609 5.716-18.564 7.959-0.334 1.769-0.548 3.878-0.548 6.309s0.214 4.539 0.548 6.309c10.954 2.243 18.564 7.959 18.564 7.959h3.24c-0.011 0-0.023-0.001-0.034-0.001 2.84-0.050 5.136-6.418 5.136-14.267zM33.782 28.877c-0.366 0-0.763-0.381-0.967-0.607-0.493-0.549-0.968-1.405-1.375-2.474-0.908-2.392-1.409-5.598-1.409-9.028s0.5-6.636 1.409-9.028c0.406-1.069 0.881-1.924 1.375-2.474 0.204-0.227 0.6-0.607 0.967-0.607s0.763 0.381 0.967 0.607c0.494 0.549 0.969 1.405 1.375 2.474 0.909 2.392 1.409 5.598 1.409 9.028s-0.5 6.636-1.409 9.028c-0.406 1.069-0.881 1.924-1.375 2.474-0.203 0.227-0.6 0.607-0.967 0.607zM9.836 16.768c0-2.029 0.149-4.001 0.432-5.824-1.85 0.256-3.474 0.403-5.482 0.403-2.619 0-2.619 0-2.619 0l-2.167 3.699v3.444l2.166 3.699c0 0 0 0 2.62 0 2.008 0 3.632 0.147 5.482 0.403-0.283-1.823-0.432-3.795-0.432-5.824zM14.381 25.085l-5-0.957 3.197 12.56c0.165 0.65 0.81 0.978 1.433 0.729l4.631-1.854c0.623-0.249 0.872-0.936 0.555-1.527l-4.816-8.951zM33.782 21.435c-0.141 0-0.294-0.147-0.373-0.234-0.19-0.212-0.373-0.541-0.53-0.953-0.35-0.922-0.543-2.158-0.543-3.48s0.193-2.558 0.543-3.48c0.156-0.412 0.34-0.742 0.53-0.953 0.079-0.088 0.231-0.234 0.373-0.234s0.294 0.147 0.373 0.234c0.19 0.212 0.373 0.541 0.53 0.953 0.35 0.922 0.543 2.158 0.543 3.48s-0.193 2.558-0.543 3.48c-0.156 0.412-0.34 0.742-0.53 0.953-0.078 0.087-0.231 0.234-0.373 0.234z"></path>
</svg>
