<!-- Generated by IcoMoon.io -->
<svg version="1.1" xmlns="http://www.w3.org/2000/svg" width="40" height="40" viewBox="0 0 40 40">
<title>clubs</title>
<path d="M30.736 15.343c-2.306 0-4.378 0.961-5.854 2.527-0.625 0.663-1.709 1.45-2.883 2.141 0.551-2.104 2.292-4.754 3.501-5.916 1.548-1.491 2.499-3.587 2.499-5.918 0-4.488-3.573-8.129-8-8.177-4.427 0.048-8 3.689-8 8.176 0 2.331 0.951 4.427 2.499 5.918 1.209 1.162 2.95 3.812 3.501 5.916-1.174-0.691-2.258-1.478-2.883-2.141-1.475-1.566-3.548-2.527-5.854-2.527-4.468 0-8.089 3.659-8.089 8.177 0 4.517 3.621 8.177 8.089 8.177 2.306 0 4.378-0.99 5.854-2.557 0.656-0.698 1.814-1.568 3.058-2.29-0.117 5.769-2.872 10.007-5.676 11.676v1.474h15.001v-1.474c-2.804-1.669-5.559-5.907-5.677-11.676 1.244 0.722 2.402 1.593 3.058 2.29 1.475 1.566 3.547 2.557 5.854 2.557 4.468 0 8.089-3.66 8.089-8.177-0-4.518-3.621-8.177-8.089-8.177z"></path>
</svg>
