<!-- Generated by IcoMoon.io -->
<svg version="1.1" xmlns="http://www.w3.org/2000/svg" width="50" height="40" viewBox="0 0 50 40">
<title>connection</title>
<path d="M25 22.5c4.136 0 7.886 1.682 10.602 4.398l-3.534 3.534c-1.811-1.811-4.311-2.932-7.068-2.932s-5.257 1.121-7.068 2.932l-3.534-3.534c2.716-2.716 6.466-4.398 10.602-4.398zM7.322 19.822c4.722-4.722 11-7.322 17.678-7.322s12.956 2.6 17.678 7.322l-3.536 3.535c-3.778-3.777-8.8-5.858-14.142-5.858s-10.365 2.080-14.142 5.858l-3.536-3.536zM38.624 5.251c4.168 1.763 7.911 4.286 11.124 7.5v0l-3.535 3.535c-5.666-5.666-13.2-8.787-21.213-8.787s-15.547 3.121-21.213 8.787l-3.536-3.536c3.214-3.214 6.956-5.737 11.124-7.5 4.317-1.826 8.9-2.751 13.624-2.751s9.308 0.926 13.624 2.751zM22.5 35c0-1.381 1.119-2.5 2.5-2.5s2.5 1.119 2.5 2.5c0 1.381-1.119 2.5-2.5 2.5s-2.5-1.119-2.5-2.5z"></path>
</svg>
