<!-- Generated by IcoMoon.io -->
<svg version="1.1" xmlns="http://www.w3.org/2000/svg" width="40" height="40" viewBox="0 0 40 40">
<title>feed</title>
<path d="M15 20c0-2.761 2.239-5 5-5s5 2.239 5 5c0 2.761-2.239 5-5 5s-5-2.239-5-5zM25.951 9.005c3.9 2.116 6.549 6.246 6.549 10.995s-2.648 8.88-6.549 10.995c1.721-2.739 2.799-6.651 2.799-10.995s-1.078-8.256-2.799-10.995zM11.25 20c0 4.344 1.078 8.256 2.799 10.995-3.9-2.116-6.549-6.246-6.549-10.995s2.648-8.879 6.549-10.995c-1.721 2.739-2.799 6.651-2.799 10.995zM3.75 20c0 6.715 2.125 12.742 5.494 16.864-5.559-3.553-9.244-9.778-9.244-16.864s3.686-13.311 9.244-16.864c-3.369 4.123-5.494 10.149-5.494 16.864zM30.756 3.136c5.559 3.553 9.244 9.778 9.244 16.864s-3.686 13.311-9.244 16.864c3.369-4.123 5.494-10.149 5.494-16.864s-2.125-12.742-5.494-16.864z"></path>
</svg>
