<!-- Generated by IcoMoon.io -->
<svg version="1.1" xmlns="http://www.w3.org/2000/svg" width="40" height="40" viewBox="0 0 40 40">
<title>podcast</title>
<path d="M40 20c0-11.046-8.954-20-20-20s-20 8.954-20 20c0 8.596 5.423 15.924 13.035 18.753l-0.535 1.247h15l-0.535-1.247c7.611-2.828 13.035-10.157 13.035-18.753zM19.015 24.798c-0.891-0.382-1.515-1.267-1.515-2.298 0-1.381 1.119-2.5 2.5-2.5s2.5 1.119 2.5 2.5c0 1.031-0.624 1.916-1.515 2.298l-0.985-2.298-0.985 2.298zM21.026 24.894c2.269-0.473 3.974-2.484 3.974-4.894 0-2.761-2.239-5-5-5s-5 2.239-5 5c0 2.41 1.706 4.419 3.975 4.892l-2.915 6.802c-3.564-1.529-6.060-5.070-6.060-9.193 0-5.523 4.477-10.469 10-10.469s10 4.946 10 10.469c0 4.124-2.496 7.664-6.060 9.193l-2.914-6.799zM26.892 38.582l-2.888-6.738c4.939-1.669 8.495-6.342 8.495-11.845 0-6.904-5.596-12.5-12.5-12.5s-12.5 5.596-12.5 12.5c0 5.503 3.556 10.175 8.495 11.845l-2.888 6.738c-6.234-2.675-10.601-8.869-10.601-16.082 0-9.661 7.832-17.962 17.494-17.962s17.494 8.301 17.494 17.962c0 7.214-4.367 13.407-10.601 16.082z"></path>
</svg>
